<?xml version="1.0" encoding="utf-8"?>
<!-- Generator: Adobe Illustrator 24.3.0, SVG Export Plug-In . SVG Version: 6.00 Build 0)  -->
<svg version="1.1" id="Artwork" xmlns="http://www.w3.org/2000/svg" xmlns:xlink="http://www.w3.org/1999/xlink" x="0px" y="0px"
	 width="124.0955px" height="28.5755px" viewBox="0 0 124.0955 28.5755" style="enable-background:new 0 0 124.0955 28.5755;"
	 xml:space="preserve">
<style type="text/css">
	.st0{fill-rule:evenodd;clip-rule:evenodd;fill:url(#SVGID_1_);}
	.st1{fill-rule:evenodd;clip-rule:evenodd;fill:#FFFFFF;}
</style>
<g>
	<g id="XMLID_478_">
		<path id="XMLID_502_" d="M38.1669,9.1548h-4.737l-1.1369,3.359h-2.0068l4.4872-12.4276h2.0843l4.4872,12.4276h-2.0412
			L38.1669,9.1548z M33.9208,7.6045h3.7552l-1.8517-5.4513h-0.0517L33.9208,7.6045z"/>
		<path id="XMLID_498_" d="M51.0257,7.9834c0,2.8169-1.5072,4.6256-3.781,4.6256c-1.2919,0-2.3168-0.5776-2.8508-1.5847h-0.0431
			v4.4867h-1.8603V3.4531h1.8001v1.5078h0.0345c0.5168-0.9738,1.6192-1.602,2.8853-1.602
			C49.5098,3.359,51.0257,5.1757,51.0257,7.9834z M49.1136,7.9834c0-1.8339-0.9474-3.0397-2.3943-3.0397
			c-1.4211,0-2.3771,1.231-2.3771,3.0397c0,1.8259,0.956,3.0489,2.3771,3.0489C48.1662,11.0323,49.1136,9.8357,49.1136,7.9834z"/>
		<path id="XMLID_495_" d="M60.9906,7.9834c0,2.8169-1.5072,4.6256-3.781,4.6256c-1.2919,0-2.3168-0.5776-2.8508-1.5847h-0.0431
			v4.4867h-1.8604V3.4531h1.8001v1.5078h0.0345c0.5168-0.9738,1.6192-1.602,2.8853-1.602
			C59.4748,3.359,60.9906,5.1757,60.9906,7.9834z M59.0786,7.9834c0-1.8339-0.9474-3.0397-2.3943-3.0397
			c-1.4211,0-2.3771,1.231-2.3771,3.0397c0,1.8259,0.956,3.0489,2.3771,3.0489C58.1312,11.0323,59.0786,9.8357,59.0786,7.9834z"/>
		<path id="XMLID_493_" d="M62.4892,0.0861h1.8603v12.4276h-1.8603V0.0861z"/>
		<path id="XMLID_490_" d="M74.0303,9.853c-0.2498,1.6445-1.8517,2.7733-3.9016,2.7733c-2.6355,0-4.2719-1.7662-4.2719-4.5992
			c0-2.8422,1.645-4.6853,4.1944-4.6853c2.5063,0,4.0824,1.7225,4.0824,4.4694v0.6373h-6.3993v0.1125
			c0,1.5503,0.9732,2.5666,2.4374,2.5666c1.0335,0,1.8431-0.4915,2.0929-1.2747H74.0303z M67.743,7.1486h4.5303
			c-0.0431-1.3872-0.9302-2.3002-2.2221-2.3002C68.7679,4.8484,67.8377,5.7786,67.743,7.1486z"/>
		<path id="XMLID_488_" d="M90.1786,12.5137V3.367h-0.0597l-3.7471,9.0526H84.942L81.1869,3.367h-0.0597v9.1467h-1.757V0.0861
			h2.2301l4.0227,9.8093h0.0689l4.0135-9.8093h2.2393v12.4276H90.1786z"/>
		<path id="XMLID_486_" d="M101.8506,12.5137h-1.7823v-1.5583h-0.0436c-0.5168,1.0852-1.4205,1.6617-2.8078,1.6617
			c-1.9717,0-3.1775-1.2747-3.1775-3.3498V3.4531h1.8603v5.4524c0,1.378,0.6546,2.1095,1.9373,2.1095
			c1.3436,0,2.1532-0.9302,2.1532-2.3427V3.4531h1.8604V12.5137z"/>
		<path id="XMLID_484_" d="M107.1411,3.3498c2.0062,0,3.4451,1.1116,3.4876,2.7136h-1.7478
			c-0.0781-0.8016-0.7579-1.2919-1.7915-1.2919c-1.0083,0-1.6801,0.4651-1.6801,1.1713c0,0.542,0.4479,0.9038,1.3872,1.1369
			l1.5239,0.3525c1.8259,0.4398,2.5149,1.1116,2.5149,2.438c0,1.6364-1.5503,2.7561-3.7632,2.7561
			c-2.136,0-3.5749-1.0944-3.7127-2.748h1.8431c0.1298,0.8705,0.8268,1.3355,1.9557,1.3355c1.1105,0,1.8087-0.457,1.8087-1.1805
			c0-0.5593-0.3445-0.8613-1.2919-1.1024l-1.6192-0.3962c-1.6364-0.3962-2.4632-1.231-2.4632-2.4885
			C103.5926,4.4442,105.0304,3.3498,107.1411,3.3498z"/>
		<path id="XMLID_481_" d="M112.2846,1.068c0-0.5949,0.4823-1.068,1.076-1.068c0.6029,0,1.0852,0.4731,1.0852,1.068
			c0,0.5857-0.4823,1.0588-1.0852,1.0588C112.7669,2.1268,112.2846,1.6536,112.2846,1.068z M112.4304,3.4531h1.8604v9.0606h-1.8604
			V3.4531z"/>
		<path id="XMLID_479_" d="M122.3041,6.5709c-0.1642-0.9554-0.9129-1.6709-2.136-1.6709c-1.4297,0-2.3771,1.1977-2.3771,3.0834
			c0,1.9293,0.9554,3.0925,2.3943,3.0925c1.1541,0,1.912-0.5776,2.1187-1.6284h1.7915c-0.2067,1.904-1.7317,3.1787-3.9274,3.1787
			c-2.5838,0-4.2719-1.7662-4.2719-4.6428c0-2.8158,1.6881-4.6417,4.2547-4.6417c2.3254,0,3.7724,1.4642,3.9274,3.2292H122.3041z"/>
	</g>
	<g>
		<path d="M33.4829,21.0989c1.2422,0.2891,1.7539,0.793,1.7539,1.7031c0,1.0781-0.7764,1.7832-2.043,1.876l-0.1475,0.373
			c0.5537,0.0127,0.873,0.2686,0.873,0.709c0,0.4951-0.3906,0.8184-1.0576,0.8184c-0.2471,0-0.4492-0.0244-0.6162-0.0713v-0.5029
			c0.0957,0.0293,0.3477,0.0586,0.5029,0.0586c0.3193,0,0.4873-0.0967,0.4873-0.2812c0-0.1807-0.1729-0.2559-0.5967-0.2559h-0.2471
			v-0.4072l0.1885-0.4453c-1.1621-0.1045-1.9258-0.7676-1.9883-1.7617h0.9307c0.0801,0.5742,0.6426,0.9395,1.4521,0.9395
			c0.7559,0,1.3096-0.3896,1.3096-0.9268c0-0.4619-0.3525-0.7393-1.1543-0.9277l-0.7803-0.1885
			c-1.0957-0.2559-1.5947-0.7852-1.5947-1.6748c0-1.0781,0.8809-1.7959,2.2031-1.7959c1.2295,0,2.1279,0.7178,2.1816,1.7373h-0.9141
			c-0.0889-0.5576-0.5752-0.9062-1.2803-0.9062c-0.7422,0-1.2373,0.3564-1.2373,0.9023c0,0.4316,0.3184,0.6797,1.1074,0.8643
			L33.4829,21.0989z"/>
		<path d="M36.3706,18.6184c0-0.3145,0.248-0.5537,0.583-0.5537c0.3359,0,0.584,0.2393,0.584,0.5537
			c0,0.3105-0.248,0.5498-0.584,0.5498C36.6187,19.1682,36.3706,18.929,36.3706,18.6184z M36.5044,19.97h0.8984v4.5693h-0.8984
			V19.97z"/>
		<path d="M38.855,19.97h0.8691v0.7344h0.0674c0.2012-0.5166,0.6621-0.8232,1.2705-0.8232c0.626,0,1.0576,0.3232,1.2598,0.8232
			h0.0713c0.2305-0.5,0.7549-0.8232,1.3887-0.8232c0.9229,0,1.46,0.5586,1.46,1.5107v3.1475h-0.9023v-2.9121
			c0-0.6172-0.293-0.9189-0.8848-0.9189c-0.584,0-0.9658,0.4199-0.9658,0.957v2.874H41.604v-3c0-0.5166-0.3447-0.8311-0.8818-0.8311
			c-0.5488,0-0.9648,0.4492-0.9648,1.0361v2.7949H38.855V19.97z"/>
		<path d="M46.4028,22.2522c0-1.4434,0.7432-2.3584,1.8965-2.3584c0.626,0,1.1543,0.2979,1.4023,0.8018h0.0664v-2.5088h0.9023
			v6.3525h-0.8643v-0.7217h-0.0713c-0.2725,0.499-0.8057,0.7969-1.4355,0.7969C47.1372,24.6145,46.4028,23.7005,46.4028,22.2522z
			 M47.3345,22.2522c0,0.9697,0.458,1.5527,1.2217,1.5527c0.7588,0,1.2295-0.5918,1.2295-1.5479
			c0-0.9531-0.4746-1.5527-1.2295-1.5527C47.7964,20.7044,47.3345,21.2913,47.3345,22.2522z"/>
		<path d="M52.0259,18.6184c0-0.3145,0.248-0.5537,0.583-0.5537c0.3359,0,0.584,0.2393,0.584,0.5537
			c0,0.3105-0.248,0.5498-0.584,0.5498C52.2739,19.1682,52.0259,18.929,52.0259,18.6184z M52.1606,19.97h0.8975v4.5693h-0.8975
			V19.97z"/>
		<path d="M59.2778,18.4846c1.7959,0,2.8496,1.1035,2.8496,3.0078c0,1.9346-1.0449,3.0469-2.8496,3.0469h-2.1855v-6.0547H59.2778z
			 M58.0317,23.6829h1.1416c1.2676,0,1.9971-0.7881,1.9971-2.1777c0-1.3672-0.7422-2.165-1.9971-2.165h-1.1416V23.6829z"/>
		<path d="M63.2944,18.6184c0-0.3145,0.248-0.5537,0.583-0.5537c0.3359,0,0.584,0.2393,0.584,0.5537
			c0,0.3105-0.248,0.5498-0.584,0.5498C63.5425,19.1682,63.2944,18.929,63.2944,18.6184z M63.4282,19.97h0.8984v4.5693h-0.8984
			V19.97z"/>
		<path d="M65.7788,19.97h0.8691v0.7256h0.0674c0.2217-0.5078,0.6748-0.8145,1.3633-0.8145c1.0195,0,1.582,0.6133,1.582,1.7002
			v2.958h-0.9023v-2.7314c0-0.7344-0.3184-1.0996-0.9863-1.0996c-0.667,0-1.0908,0.4443-1.0908,1.1582v2.6729h-0.9023V19.97z"/>
		<path d="M71.0923,18.1868h0.9023v6.3525h-0.9023V18.1868z"/>
		<path d="M77.3374,23.3059c-0.2061,0.8184-0.9355,1.3213-1.9805,1.3213c-1.3096,0-2.1113-0.8975-2.1113-2.3584
			c0-1.46,0.8184-2.3877,2.1064-2.3877c1.2715,0,2.04,0.8691,2.04,2.3037v0.3154h-3.2275v0.0498
			c0.0293,0.8018,0.4951,1.3096,1.2168,1.3096c0.5459,0,0.9189-0.1973,1.0869-0.5537H77.3374z M74.1646,21.8333h2.3086
			c-0.0215-0.7178-0.458-1.1836-1.125-1.1836C74.6812,20.6497,74.2153,21.1194,74.1646,21.8333z"/>
	</g>
	<g>
		<g>
			<linearGradient id="SVGID_1_" gradientUnits="userSpaceOnUse" x1="12.5802" y1="25.0643" x2="12.5802" y2="0.5408">
				<stop  offset="0" style="stop-color:#FA233B"/>
				<stop  offset="1" style="stop-color:#FB5C74"/>
			</linearGradient>
			<path class="st0" d="M25.1618,7.8699c0-0.3005,0.0001-0.6011-0.0017-0.9016c-0.0015-0.2532-0.0045-0.5063-0.0113-0.7594
				c-0.0149-0.5513-0.0474-1.1074-0.1453-1.6525c-0.0995-0.5536-0.2618-1.0688-0.5179-1.5717c-0.2515-0.494-0.58-0.946-0.972-1.338
				c-0.392-0.392-0.8441-0.7206-1.3382-0.9721c-0.5027-0.2559-1.0176-0.4182-1.5709-0.5177
				c-0.5454-0.098-1.1017-0.1305-1.6531-0.1454c-0.2531-0.0068-0.5062-0.0098-0.7594-0.0113
				c-0.3005-0.0018-0.6011-0.0017-0.9016-0.0017H7.8699c-0.3005,0-0.6011-0.0001-0.9016,0.0017
				C6.7151,0.0018,6.462,0.0047,6.2089,0.0115C5.6575,0.0264,5.1012,0.0589,4.5558,0.157C4.0025,0.2564,3.4876,0.4187,2.9849,0.6746
				C2.4908,0.9261,2.0387,1.2547,1.6467,1.6467c-0.392,0.392-0.7205,0.844-0.972,1.338C0.4187,3.4876,0.2563,4.0028,0.1568,4.5564
				C0.0589,5.1016,0.0264,5.6577,0.0115,6.209C0.0047,6.462,0.0018,6.7151,0.0002,6.9683
				c-0.0018,0.3005-0.0017,0.6011-0.0017,0.9016v9.4205c0,0.3005-0.0001,0.6011,0.0017,0.9016
				c0.0015,0.2532,0.0045,0.5063,0.0113,0.7594c0.0149,0.5513,0.0474,1.1074,0.1453,1.6525
				c0.0995,0.5536,0.2618,1.0688,0.5179,1.5717c0.2515,0.494,0.58,0.946,0.972,1.338c0.392,0.392,0.8441,0.7206,1.3382,0.9721
				c0.5027,0.2559,1.0176,0.4182,1.5709,0.5177c0.5454,0.098,1.1017,0.1305,1.6531,0.1454
				c0.2531,0.0068,0.5062,0.0098,0.7594,0.0113c0.3005,0.0018,0.6011,0.0017,0.9016,0.0017h9.4205
				c0.3005,0,0.6011,0.0001,0.9016-0.0017c0.2532-0.0015,0.5063-0.0045,0.7594-0.0113c0.5515-0.0149,1.1078-0.0474,1.6531-0.1454
				c0.5533-0.0994,1.0682-0.2618,1.5709-0.5177c0.4941-0.2515,0.9462-0.5801,1.3382-0.9721c0.392-0.392,0.7205-0.844,0.972-1.338
				c0.2561-0.5029,0.4184-1.0181,0.5179-1.5717c0.0979-0.5452,0.1304-1.1013,0.1453-1.6525
				c0.0068-0.2531,0.0098-0.5062,0.0113-0.7594c0.0018-0.3005,0.0017-0.6011,0.0017-0.9016V7.8699z"/>
		</g>
		<g id="Glyph_11_">
			<g>
				<path class="st1" d="M17.7878,3.8428c-0.0608,0.0053-0.6013,0.1013-0.6662,0.1145L9.6426,5.4662L9.6397,5.4668
					C9.4445,5.5083,9.292,5.5769,9.1734,5.6765C9.0308,5.7962,8.9517,5.9651,8.9218,6.1621c-0.0063,0.0422-0.017,0.127-0.017,0.2532
					c0,0,0.0001,7.6411,0.0001,9.3605c0,0.2184-0.0175,0.4316-0.1655,0.6124c-0.1479,0.1808-0.3315,0.2357-0.5456,0.2788
					c-0.1628,0.0328-0.3256,0.0656-0.4883,0.0984c-0.6179,0.1246-1.0198,0.209-1.3841,0.3503
					c-0.3481,0.1351-0.6088,0.3072-0.8163,0.5247c-0.4114,0.4312-0.5791,1.0164-0.5215,1.5641
					c0.0492,0.4675,0.2595,0.9148,0.6206,1.2459c0.2437,0.2234,0.5484,0.3934,0.908,0.4656
					c0.3727,0.075,0.7695,0.0486,1.3494-0.0684c0.3089-0.0623,0.5982-0.1596,0.874-0.3224
					c0.2723-0.1608,0.5062-0.3752,0.6884-0.6367c0.1829-0.2623,0.3015-0.5536,0.3666-0.8633
					c0.0671-0.3192,0.0835-0.6083,0.0835-0.9269l0.0001-8.119c0-0.435,0.1232-0.5497,0.4739-0.6344c0,0,6.2169-1.2538,6.5065-1.3102
					c0.405-0.0779,0.5952,0.0377,0.5952,0.4619l-0.0001,5.5422c0,0.2198-0.0024,0.4415-0.1515,0.6237
					c-0.148,0.1808-0.3315,0.2357-0.5457,0.2788c-0.1628,0.0328-0.3256,0.0656-0.4883,0.0984
					c-0.6179,0.1246-1.0199,0.2089-1.3841,0.3503c-0.3481,0.1351-0.6088,0.3072-0.8164,0.5247
					c-0.4114,0.4312-0.5938,1.0164-0.5362,1.5641c0.0492,0.4675,0.2744,0.9148,0.6354,1.2459
					c0.2437,0.2234,0.5484,0.3887,0.908,0.461c0.3727,0.075,0.7695,0.0485,1.3494-0.0684c0.309-0.0623,0.5982-0.155,0.874-0.3178
					c0.2723-0.1608,0.5061-0.3752,0.6885-0.6367c0.1829-0.2623,0.3015-0.5536,0.3665-0.8633
					c0.067-0.3192,0.0699-0.6083,0.0699-0.927V4.5041C18.4191,4.0733,18.1921,3.8079,17.7878,3.8428z"/>
			</g>
		</g>
	</g>
</g>
</svg>
